<svg width="150" height="150" viewBox="0 0 150 150" fill="none" xmlns="http://www.w3.org/2000/svg">
<rect width="150" height="150" rx="8" fill="#D4B139"/>
<g clip-path="url(#clip0_1268_60298)">
<path d="M40.2016 28.6H28.6016V40.2H40.2016V28.6Z" fill="black"/>
<path d="M98.1984 17V22.8H92.3984V28.6H98.1984V51.8H103.998V57.6H98.1984V63.4H103.998H109.798V51.8H127.198V57.6H132.998V51.8V17H98.1984ZM127.198 46H103.998V22.8H127.198V46Z" fill="black"/>
<path d="M121.401 28.6H109.801V40.2H121.401V28.6Z" fill="black"/>
<path d="M40.2016 109.8H28.6016V121.4H40.2016V109.8Z" fill="black"/>
<path d="M103.999 98.2H98.1992V104H103.999V98.2Z" fill="black"/>
<path d="M74.9992 127.2H69.1992V133H74.9992V127.2Z" fill="black"/>
<path d="M80.8 104H75V109.8H80.8V104Z" fill="black"/>
<path d="M80.8 115.6H75V121.4H80.8V115.6Z" fill="black"/>
<path d="M132.999 86.6H127.199V92.4H132.999V86.6Z" fill="black"/>
<path d="M22.8 86.6H17V92.4H22.8V86.6Z" fill="black"/>
<path d="M22.8 57.6H17V63.4H22.8V57.6Z" fill="black"/>
<path d="M80.7992 22.8V28.6H69.1992V34.4H86.5992V28.6V22.8H80.7992Z" fill="black"/>
<path d="M127.202 63.4V69.2H115.602V75H98.2016V69.2H92.4016V75H80.8016V80.8H98.2016V86.6H86.6016H80.8016V80.8H75.0016V86.6H69.2016V80.8H63.4016V86.6H57.6016V92.4H69.2016V98.2H75.0016V92.4H86.6016V98.2H80.8016V104H86.6016V115.6H92.4016V121.4H98.2016V115.6H115.602V104H121.402V98.2H115.602V86.6H104.002V80.8H115.602V86.6H121.402V80.8H127.202V75H133.002V69.2V63.4H127.202ZM109.802 92.4V109.8H92.4016V92.4H109.802Z" fill="black"/>
<path d="M92.4008 51.8H86.6008V57.6H80.8008V63.4V69.2H86.6008V63.4H92.4008V57.6H98.2008V51.8H92.4008Z" fill="black"/>
<path d="M92.4008 127.2H80.8008V133H92.4008V127.2Z" fill="black"/>
<path d="M69.1984 22.8H63.3984V28.6H69.1984V22.8Z" fill="black"/>
<path d="M115.601 63.4H109.801V69.2H115.601V63.4Z" fill="black"/>
<path d="M121.402 57.6H115.602V63.4H121.402V57.6Z" fill="black"/>
<path d="M45.9992 86.6H40.1992V92.4H45.9992V86.6Z" fill="black"/>
<path d="M51.8 127.2V104H57.6V98.2V92.4H51.8V98.2H34.4V92.4H28.6H22.8V98.2H17V133H51.8H63.4V127.2H51.8ZM46 127.2H22.8V104H46V127.2Z" fill="black"/>
<path d="M57.6008 51.8H51.8008V57.6H57.6008V51.8Z" fill="black"/>
<path d="M57.6 17H51.8H17V51.8H22.8V57.6H28.6V51.8H34.4V57.6H40.2V51.8H51.8V40.2H57.6V34.4H51.8V22.8H57.6H63.4V17H57.6ZM46 46H22.8V22.8H46V46Z" fill="black"/>
<path d="M92.4016 34.4H86.6016V40.2H92.4016V34.4Z" fill="black"/>
<path d="M80.8 17H75V22.8H80.8V17Z" fill="black"/>
<path d="M86.6 51.8V46H80.8V40.2H75V46H63.4V40.2H57.6V46V51.8H63.4V63.4H46V57.6H40.2V63.4H22.8V69.2H34.4V75H17V80.8H34.4V86.6H40.2V80.8H46V86.6H51.8V80.8H63.4V75H57.6V69.2H63.4H69.2V75H75H80.8V69.2H75V63.4H69.2V51.8H86.6ZM51.8 75H40.2V69.2H51.8V75Z" fill="black"/>
<path d="M69.2016 109.8V104V98.2H63.4016V104H57.6016V109.8H63.4016V115.6H57.6016V121.4H69.2016V115.6H75.0016V109.8H69.2016Z" fill="black"/>
<path d="M121.399 121.4V115.6H115.599V121.4H98.1992V127.2H109.799V133H115.599V127.2H127.199V133H132.999V127.2V121.4H121.399Z" fill="black"/>
<path d="M127.198 98.2V104H121.398V109.8H132.998V104V98.2H127.198Z" fill="black"/>
</g>
<defs>
<clipPath id="clip0_1268_60298">
<rect width="116" height="116" fill="white" transform="translate(17 17)"/>
</clipPath>
</defs>
</svg>
