<svg width="39" height="36" viewBox="0 0 39 36" fill="none" xmlns="http://www.w3.org/2000/svg">
<g clip-path="url(#clip0_1268_60111)">
<path d="M7.23298 12.3974L5.15582 13.0133L0.6875 17.023L11.2545 35.0544L34.9607 6.34663L28.6688 1.06885L11.81 20.3321L7.23298 12.3974Z" fill="#C9A62A"/>
<path d="M11.4492 35.0295L34.9622 6.34595L38.549 6.49087L19.8786 29.16L14.3114 35.2228L11.4492 35.0295Z" fill="#886400"/>
<path d="M28.2832 0.63396C22.7159 7.31271 16.8588 13.7861 11.2673 20.4407L11.9074 20.5253C10.3253 17.9528 8.79163 15.3441 7.07676 12.832C6.85938 12.518 6.53332 11.8538 6.06233 11.9745C4.73549 12.8739 3.48715 13.8839 2.33068 14.9939C1.7027 15.6943 0.519203 16.262 0.398438 17.2402C1.2921 19.0398 2.34276 20.7668 3.32096 22.518C5.73627 26.7209 8.15157 30.9721 10.7843 35.0905C11.1949 35.6944 11.6055 35.4528 11.9919 34.9214L16.4965 29.4866C22.6796 21.9625 28.9594 14.5229 34.9736 6.86584C35.6136 6.14121 34.3577 5.65811 33.9712 5.09048C32.365 3.56874 30.7589 2.07116 29.044 0.730578C28.2711 -0.00613666 27.7397 1.38275 28.6817 1.31029C28.6416 1.32723 28.5984 1.33596 28.5549 1.33596C28.5113 1.33596 28.4682 1.32723 28.4281 1.31029L28.6696 1.47937C30.5898 3.01319 32.8722 5.10256 34.406 6.53976C34.3906 6.44375 34.3906 6.34591 34.406 6.2499C34.406 6.2499 34.1765 6.56391 34.0557 6.70884C26.6287 16.0084 18.7668 25.4649 11.1103 34.704C11.1103 34.6074 11.4726 34.5953 11.5692 34.6436C11.6296 34.704 11.6658 34.6919 11.5692 34.6436C11.5089 34.5832 11.5692 34.7161 11.5692 34.6436C7.94627 29.0035 4.32331 22.5663 1.2921 17.0229C1.2921 17.0229 1.23172 17.3731 1.2921 17.204C2.88891 15.5626 4.62207 14.0596 6.47294 12.7113C6.39768 12.7307 6.31873 12.7307 6.24348 12.7113C6.15895 12.6267 6.24348 12.7113 6.24348 12.7113C6.81108 13.4117 7.53567 14.6074 8.12742 15.5373C8.85201 17.0591 9.81814 18.6171 10.748 20.1026C11.0258 20.4649 11.3156 21.4794 11.8953 21.0204C16.6293 15.2475 21.6773 9.74024 26.4717 4.0156C27.2687 3.07357 28.0779 2.1557 28.887 1.21367C29.1889 0.815119 28.6213 0.235409 28.2832 0.63396Z" fill="#886400"/>
<path d="M34.9027 6.62446C34.794 6.62446 34.963 6.62446 34.9027 6.62446H35.5186H36.7262H37.9339H38.3445C38.4245 6.63654 38.5059 6.63654 38.586 6.62446L38.3324 6.38291C38.3324 6.32253 38.3324 6.29837 38.3324 6.32253L38.2237 6.50369C38.0909 6.69692 37.958 6.89016 37.8131 7.07132C37.3663 7.67518 36.8953 8.27905 36.4364 8.87084C34.1901 11.7332 31.9439 14.6076 29.6252 17.4216C27.5964 19.837 25.5192 22.2525 23.4299 24.6679C21.1596 27.2525 18.8892 29.837 16.5705 32.3733C15.8821 33.11 15.2058 33.8588 14.4933 34.5713L14.2276 34.8129C13.4531 34.8874 12.6742 34.9076 11.8969 34.8733H11.281C10.9428 34.8733 10.9428 35.3805 11.281 35.4047C11.9693 35.4047 12.6698 35.4047 13.3581 35.4047C13.7998 35.468 14.25 35.383 14.6382 35.1631C15.242 34.6157 15.8107 34.0308 16.341 33.4119C18.6356 31.0085 20.9301 28.4481 23.1522 25.8636C25.3743 23.2791 27.5843 20.7911 29.7339 18.2066C32.0767 15.4288 34.323 12.5786 36.6296 9.66794C37.1489 9.01576 37.6561 8.35151 38.1633 7.68726C38.4438 7.36716 38.6906 7.01912 38.9 6.64861C38.9314 6.60488 38.95 6.55326 38.9538 6.49954C38.9575 6.44582 38.9462 6.39212 38.9211 6.34447C38.896 6.29681 38.8582 6.25709 38.8118 6.22975C38.7654 6.20241 38.7123 6.18853 38.6585 6.18968C38.4049 6.18968 38.1392 6.18968 37.8856 6.18968C37.0523 6.18968 36.219 6.11721 35.3857 6.18968C35.1489 6.16865 34.9103 6.19744 34.6853 6.27422C34.3834 6.41915 34.6853 6.87808 34.951 6.72108L34.9027 6.62446Z" fill="#886400"/>
<path d="M6.17188 11.9503L9.68615 11.7087C9.7556 11.701 9.82589 11.7101 9.89106 11.7354C9.95623 11.7606 10.0144 11.8012 10.0605 11.8536L14.4926 17.1073L11.5097 20.9116L6.17188 11.9503Z" fill="#886400"/>
<path d="M28.418 0.500732C28.418 0.500732 33.0433 0.500732 33.2486 0.657737C33.4539 0.814742 38.7676 6.2616 38.7676 6.2616L34.7219 6.39445L28.418 0.500732Z" fill="#886400"/>
</g>
<defs>
<clipPath id="clip0_1268_60111">
<rect width="38.5" height="35" fill="white" transform="translate(0.398438 0.5)"/>
</clipPath>
</defs>
</svg>
