<svg width="32" height="40" viewBox="0 0 32 40" fill="none" xmlns="http://www.w3.org/2000/svg">
<mask id="mask0_4480_5511" style="mask-type:luminance" maskUnits="userSpaceOnUse" x="0" y="4" width="32" height="32">
<path d="M0 4H32V36H0V4Z" fill="white"/>
<path fill-rule="evenodd" clip-rule="evenodd" d="M5.53906 20.0001C5.53906 22.7747 6.64126 25.4356 8.60318 27.3975C10.5651 29.3595 13.226 30.4617 16.0006 30.4617C18.7752 30.4617 21.4361 29.3595 23.398 27.3975C25.3599 25.4356 26.4621 22.7747 26.4621 20.0001C26.4621 17.2255 25.3599 14.5646 23.398 12.6027C21.4361 10.6408 18.7752 9.53857 16.0006 9.53857C13.226 9.53857 10.5651 10.6408 8.60318 12.6027C6.64126 14.5646 5.53906 17.2255 5.53906 20.0001ZM25.2314 20.0001C25.2314 22.4483 24.2588 24.7961 22.5277 26.5273C20.7966 28.2584 18.4488 29.2309 16.0006 29.2309C13.5524 29.2309 11.2046 28.2584 9.47346 26.5273C7.74236 24.7961 6.76983 22.4483 6.76983 20.0001C6.76983 17.552 7.74236 15.2041 9.47346 13.473C11.2046 11.7419 13.5524 10.7693 16.0006 10.7693C18.4488 10.7693 20.7966 11.7419 22.5277 13.473C24.2588 15.2041 25.2314 17.552 25.2314 20.0001Z" fill="black"/>
<path fill-rule="evenodd" clip-rule="evenodd" d="M11.6914 20C11.6914 25.4092 13.4662 29.8461 15.9991 29.8461C18.532 29.8461 20.3068 25.4092 20.3068 20C20.3068 14.5895 18.532 10.1538 15.9991 10.1538C13.4662 10.1538 11.6914 14.5895 11.6914 20ZM19.076 20C19.076 24.7864 17.5437 28.6153 15.9991 28.6153C14.4545 28.6153 12.9222 24.7864 12.9222 20C12.9222 15.2135 14.4545 11.3846 15.9991 11.3846C17.5437 11.3846 19.076 15.2135 19.076 20Z" fill="black"/>
<path d="M8.29163 14.2301L9.11625 13.3169C9.24794 13.435 9.38825 13.5507 9.5384 13.6627C11.1606 14.8787 13.7206 15.6197 16.5107 15.6197C18.8898 15.6197 21.1101 15.0818 22.7323 14.155C23.106 13.9436 23.4591 13.6976 23.787 13.4203L24.587 14.3557C24.2203 14.6695 23.8043 14.9587 23.3439 15.2221C21.5261 16.2621 19.0953 16.8504 16.5107 16.8504C13.4707 16.8504 10.6498 16.0344 8.79994 14.6474C8.62417 14.5157 8.45456 14.3761 8.29163 14.2289M8.29163 25.7846L9.11625 26.6954C9.24794 26.5772 9.38825 26.4615 9.5384 26.3507C11.1606 25.1347 13.7206 24.3938 16.5107 24.3938C18.8898 24.3938 21.1101 24.9304 22.7323 25.8584C23.1273 26.0849 23.4806 26.331 23.787 26.592L24.587 25.6566C24.2006 25.3296 23.7845 25.0395 23.3439 24.7901C21.5261 23.7514 19.0953 23.163 16.5107 23.163C13.4707 23.163 10.6498 23.979 8.79994 25.3649C8.62025 25.5003 8.4504 25.6394 8.29163 25.7834M6.15625 20.6154V19.3846H25.8486V20.6154H6.15625Z" fill="black"/>
</mask>
<g mask="url(#mask0_4480_5511)">
<path d="M16 36C24.8366 36 32 28.8366 32 20C32 11.1634 24.8366 4 16 4C7.16344 4 0 11.1634 0 20C0 28.8366 7.16344 36 16 36Z" fill="#D4B139"/>
</g>
</svg>
