<svg width="35" height="40" viewBox="0 0 35 40" fill="none" xmlns="http://www.w3.org/2000/svg">
<path d="M5 8H10V13.2125C9.33223 12.9758 8.61105 12.933 7.92 13.0893C7.22894 13.2455 6.59629 13.5943 6.09531 14.0953C5.59432 14.5963 5.24551 15.2289 5.08927 15.92C4.93303 16.6111 4.97576 17.3322 5.2125 18H0V13C0 11.6739 0.526784 10.4021 1.46447 9.46447C2.40215 8.52678 3.67392 8 5 8ZM12.5 22.2675L15.365 25.135C15.5997 25.3697 15.9181 25.5016 16.25 25.5016C16.5819 25.5016 16.9003 25.3697 17.135 25.135C17.3697 24.9003 17.5016 24.5819 17.5016 24.25C17.5016 23.9181 17.3697 23.5997 17.135 23.365L14.2675 20.5H35V28C35 29.3261 34.4732 30.5979 33.5355 31.5355C32.5979 32.4732 31.3261 33 30 33H12.5V22.2675ZM8.2325 20.5L5.365 23.365C5.13028 23.5997 4.99842 23.9181 4.99842 24.25C4.99842 24.5819 5.13028 24.9003 5.365 25.135C5.59972 25.3697 5.91806 25.5016 6.25 25.5016C6.58194 25.5016 6.90028 25.3697 7.135 25.135L10 22.2675V33H5C3.67392 33 2.40215 32.4732 1.46447 31.5355C0.526784 30.5979 0 29.3261 0 28V20.5H8.2325ZM17.2875 18C17.4275 17.6067 17.4983 17.19 17.5 16.75C17.5003 16.1499 17.3566 15.5585 17.081 15.0255C16.8053 14.4924 16.4058 14.0333 15.9159 13.6867C15.426 13.3401 14.8601 13.1162 14.2657 13.0337C13.6713 12.9511 13.0658 13.0125 12.5 13.2125V8H30C31.3261 8 32.5979 8.52678 33.5355 9.46447C34.4732 10.4021 35 11.6739 35 13V18H17.2875ZM12.5 16.75V18H13.75C13.9972 18 14.2389 17.9267 14.4445 17.7893C14.65 17.652 14.8102 17.4568 14.9049 17.2284C14.9995 16.9999 15.0242 16.7486 14.976 16.5061C14.9278 16.2637 14.8087 16.0409 14.6339 15.8661C14.4591 15.6913 14.2363 15.5722 13.9939 15.524C13.7514 15.4758 13.5001 15.5005 13.2716 15.5952C13.0432 15.6898 12.848 15.85 12.7107 16.0555C12.5733 16.2611 12.5 16.5028 12.5 16.75ZM10 16.75V18H8.75C8.50277 18 8.2611 17.9267 8.05554 17.7893C7.84998 17.652 7.68976 17.4568 7.59515 17.2284C7.50054 16.9999 7.47579 16.7486 7.52402 16.5061C7.57225 16.2637 7.6913 16.0409 7.86612 15.8661C8.04093 15.6913 8.26366 15.5722 8.50614 15.524C8.74861 15.4758 8.99995 15.5005 9.22835 15.5952C9.45676 15.6898 9.65199 15.85 9.78934 16.0555C9.92669 16.2611 10 16.5028 10 16.75Z" fill="#D4B139"/>
</svg>
